<svg xmlns="http://www.w3.org/2000/svg" xmlns:xlink="http://www.w3.org/1999/xlink" width="275" zoomAndPan="magnify" viewBox="0 0 206.25 67.499998" height="90" preserveAspectRatio="xMidYMid meet" version="1.0"><defs><g/></defs><g fill="#ff00f2" fill-opacity="1"><g transform="translate(14.815278, 30.353192)"><g><path d="M 0.75 0 L 0.75 -0.34375 L 1.4375 -0.609375 C 1.894531 -0.773438 2.195312 -0.992188 2.34375 -1.265625 C 2.488281 -1.535156 2.5625 -1.890625 2.5625 -2.328125 L 2.5625 -20.234375 C 2.5625 -20.691406 2.488281 -21.054688 2.34375 -21.328125 C 2.195312 -21.597656 1.894531 -21.816406 1.4375 -21.984375 L 0.75 -22.25 L 0.75 -22.59375 L 9.453125 -22.59375 L 9.453125 -22.25 L 8.859375 -22.015625 C 8.429688 -21.847656 8.132812 -21.632812 7.96875 -21.375 C 7.8125 -21.113281 7.734375 -20.753906 7.734375 -20.296875 L 7.734375 -11.984375 L 15.921875 -11.984375 L 15.921875 -20.296875 C 15.921875 -20.753906 15.84375 -21.113281 15.6875 -21.375 C 15.539062 -21.632812 15.242188 -21.847656 14.796875 -22.015625 L 14.171875 -22.25 L 14.171875 -22.59375 L 22.90625 -22.59375 L 22.90625 -22.25 L 22.21875 -21.984375 C 21.78125 -21.816406 21.484375 -21.597656 21.328125 -21.328125 C 21.171875 -21.054688 21.09375 -20.691406 21.09375 -20.234375 L 21.09375 -2.328125 C 21.09375 -1.890625 21.171875 -1.535156 21.328125 -1.265625 C 21.484375 -0.992188 21.78125 -0.773438 22.21875 -0.609375 L 22.90625 -0.34375 L 22.90625 0 L 14.171875 0 L 14.171875 -0.34375 L 14.796875 -0.546875 C 15.242188 -0.734375 15.539062 -0.957031 15.6875 -1.21875 C 15.84375 -1.476562 15.921875 -1.835938 15.921875 -2.296875 L 15.921875 -11.296875 L 7.734375 -11.296875 L 7.734375 -2.296875 C 7.734375 -1.453125 8.109375 -0.867188 8.859375 -0.546875 L 9.453125 -0.34375 L 9.453125 0 Z M 0.75 0 "/></g></g></g><g fill="#ff00f2" fill-opacity="1"><g transform="translate(43.908876, 30.353192)"><g><path d="M 5.6875 0.515625 C 4.363281 0.515625 3.25 0.140625 2.34375 -0.609375 C 1.445312 -1.367188 1 -2.457031 1 -3.875 C 1 -4.945312 1.546875 -5.929688 2.640625 -6.828125 C 3.734375 -7.734375 5.457031 -8.410156 7.8125 -8.859375 C 8.175781 -8.929688 8.582031 -9.003906 9.03125 -9.078125 C 9.488281 -9.160156 9.96875 -9.25 10.46875 -9.34375 L 10.46875 -12.046875 C 10.46875 -13.597656 10.28125 -14.6875 9.90625 -15.3125 C 9.53125 -15.945312 8.941406 -16.265625 8.140625 -16.265625 C 7.597656 -16.265625 7.164062 -16.085938 6.84375 -15.734375 C 6.53125 -15.378906 6.328125 -14.769531 6.234375 -13.90625 L 6.15625 -13.515625 C 6.113281 -12.535156 5.875 -11.816406 5.4375 -11.359375 C 5.007812 -10.910156 4.472656 -10.6875 3.828125 -10.6875 C 3.234375 -10.6875 2.742188 -10.867188 2.359375 -11.234375 C 1.972656 -11.597656 1.78125 -12.085938 1.78125 -12.703125 C 1.78125 -13.640625 2.101562 -14.425781 2.75 -15.0625 C 3.40625 -15.695312 4.269531 -16.175781 5.34375 -16.5 C 6.414062 -16.820312 7.578125 -16.984375 8.828125 -16.984375 C 10.859375 -16.984375 12.425781 -16.484375 13.53125 -15.484375 C 14.644531 -14.492188 15.203125 -12.878906 15.203125 -10.640625 L 15.203125 -3.078125 C 15.203125 -2.054688 15.679688 -1.546875 16.640625 -1.546875 L 17.390625 -1.546875 L 17.703125 -1.265625 C 17.265625 -0.710938 16.789062 -0.289062 16.28125 0 C 15.769531 0.289062 15.046875 0.4375 14.109375 0.4375 C 13.097656 0.4375 12.300781 0.207031 11.71875 -0.25 C 11.144531 -0.71875 10.765625 -1.34375 10.578125 -2.125 C 9.890625 -1.394531 9.1875 -0.769531 8.46875 -0.25 C 7.75 0.257812 6.820312 0.515625 5.6875 0.515625 Z M 7.765625 -1.578125 C 8.222656 -1.578125 8.648438 -1.679688 9.046875 -1.890625 C 9.453125 -2.109375 9.925781 -2.445312 10.46875 -2.90625 L 10.46875 -8.65625 C 10.25 -8.613281 10.023438 -8.566406 9.796875 -8.515625 C 9.566406 -8.472656 9.300781 -8.429688 9 -8.390625 C 7.945312 -8.117188 7.109375 -7.65625 6.484375 -7 C 5.859375 -6.351562 5.546875 -5.476562 5.546875 -4.375 C 5.546875 -3.445312 5.757812 -2.75 6.1875 -2.28125 C 6.625 -1.8125 7.148438 -1.578125 7.765625 -1.578125 Z M 7.765625 -1.578125 "/></g></g></g><g fill="#ff00f2" fill-opacity="1"><g transform="translate(67.08145, 30.353192)"><g><path d="M 4.796875 -18.765625 C 4.015625 -18.765625 3.351562 -19.007812 2.8125 -19.5 C 2.28125 -19.988281 2.015625 -20.609375 2.015625 -21.359375 C 2.015625 -22.140625 2.28125 -22.769531 2.8125 -23.25 C 3.351562 -23.726562 4.015625 -23.96875 4.796875 -23.96875 C 5.566406 -23.96875 6.210938 -23.726562 6.734375 -23.25 C 7.265625 -22.769531 7.53125 -22.140625 7.53125 -21.359375 C 7.53125 -20.609375 7.265625 -19.988281 6.734375 -19.5 C 6.210938 -19.007812 5.566406 -18.765625 4.796875 -18.765625 Z M 0.75 0 L 0.75 -0.34375 L 1.234375 -0.484375 C 1.691406 -0.617188 2.003906 -0.820312 2.171875 -1.09375 C 2.347656 -1.363281 2.4375 -1.726562 2.4375 -2.1875 L 2.4375 -12.90625 C 2.4375 -13.382812 2.347656 -13.742188 2.171875 -13.984375 C 2.003906 -14.222656 1.691406 -14.390625 1.234375 -14.484375 L 0.75 -14.578125 L 0.75 -14.921875 L 7.015625 -16.953125 L 7.359375 -16.609375 L 7.25 -11.75 L 7.25 -2.15625 C 7.25 -1.695312 7.332031 -1.332031 7.5 -1.0625 C 7.675781 -0.789062 7.984375 -0.582031 8.421875 -0.4375 L 8.765625 -0.34375 L 8.765625 0 Z M 0.75 0 "/></g></g></g><g fill="#ff00f2" fill-opacity="1"><g transform="translate(82.108332, 30.353192)"><g><path d="M 0.6875 0 L 0.6875 -0.34375 L 1.203125 -0.484375 C 1.660156 -0.617188 1.972656 -0.820312 2.140625 -1.09375 C 2.304688 -1.363281 2.390625 -1.71875 2.390625 -2.15625 L 2.390625 -12.875 C 2.390625 -13.375 2.304688 -13.742188 2.140625 -13.984375 C 1.972656 -14.222656 1.660156 -14.390625 1.203125 -14.484375 L 0.6875 -14.625 L 0.6875 -14.953125 L 6.578125 -16.953125 L 6.921875 -16.609375 L 7.21875 -13.65625 L 7.21875 -13.390625 C 7.539062 -14.023438 7.957031 -14.609375 8.46875 -15.140625 C 8.988281 -15.679688 9.5625 -16.125 10.1875 -16.46875 C 10.8125 -16.8125 11.429688 -16.984375 12.046875 -16.984375 C 12.910156 -16.984375 13.570312 -16.742188 14.03125 -16.265625 C 14.488281 -15.785156 14.71875 -15.179688 14.71875 -14.453125 C 14.71875 -13.671875 14.492188 -13.066406 14.046875 -12.640625 C 13.609375 -12.222656 13.082031 -12.015625 12.46875 -12.015625 C 11.507812 -12.015625 10.660156 -12.492188 9.921875 -13.453125 L 9.859375 -13.515625 C 9.628906 -13.835938 9.363281 -14.015625 9.0625 -14.046875 C 8.769531 -14.085938 8.5 -13.945312 8.25 -13.625 C 8.019531 -13.414062 7.832031 -13.171875 7.6875 -12.890625 C 7.539062 -12.609375 7.394531 -12.28125 7.25 -11.90625 L 7.25 -2.359375 C 7.25 -1.453125 7.648438 -0.882812 8.453125 -0.65625 L 9.546875 -0.34375 L 9.546875 0 Z M 0.6875 0 "/></g></g></g><g fill="#ff00f2" fill-opacity="1"><g transform="translate(102.645535, 30.353192)"><g/></g></g><g fill="#ff00f2" fill-opacity="1"><g transform="translate(115.550432, 30.353192)"><g><path d="M 0.6875 0 L 0.6875 -0.34375 L 1.375 -0.578125 C 2.144531 -0.828125 2.53125 -1.476562 2.53125 -2.53125 L 2.53125 -20.0625 C 2.53125 -20.519531 2.476562 -20.882812 2.375 -21.15625 C 2.269531 -21.425781 2.003906 -21.65625 1.578125 -21.84375 L 0.6875 -22.25 L 0.6875 -22.59375 L 7.296875 -22.59375 L 13.625 -6.03125 L 19.578125 -22.59375 L 26.328125 -22.59375 L 26.328125 -22.25 L 25.78125 -22.046875 C 25.34375 -21.890625 25.046875 -21.664062 24.890625 -21.375 C 24.734375 -21.09375 24.65625 -20.722656 24.65625 -20.265625 L 24.65625 -2.359375 C 24.65625 -1.898438 24.707031 -1.546875 24.8125 -1.296875 C 24.925781 -1.046875 25.203125 -0.832031 25.640625 -0.65625 L 26.328125 -0.34375 L 26.328125 0 L 17.796875 0 L 17.796875 -0.34375 L 18.515625 -0.65625 C 18.953125 -0.832031 19.226562 -1.046875 19.34375 -1.296875 C 19.457031 -1.546875 19.515625 -1.898438 19.515625 -2.359375 L 19.515625 -10.0625 L 19.578125 -19.859375 L 12.421875 0 L 10.71875 0 L 3.25 -19.609375 L 3.359375 -11.09375 L 3.359375 -2.46875 C 3.359375 -1.96875 3.429688 -1.5625 3.578125 -1.25 C 3.722656 -0.9375 4.015625 -0.710938 4.453125 -0.578125 L 5.203125 -0.34375 L 5.203125 0 Z M 0.6875 0 "/></g></g></g><g fill="#ff00f2" fill-opacity="1"><g transform="translate(148.066592, 30.353192)"><g><path d="M 5.6875 0.515625 C 4.363281 0.515625 3.25 0.140625 2.34375 -0.609375 C 1.445312 -1.367188 1 -2.457031 1 -3.875 C 1 -4.945312 1.546875 -5.929688 2.640625 -6.828125 C 3.734375 -7.734375 5.457031 -8.410156 7.8125 -8.859375 C 8.175781 -8.929688 8.582031 -9.003906 9.03125 -9.078125 C 9.488281 -9.160156 9.96875 -9.25 10.46875 -9.34375 L 10.46875 -12.046875 C 10.46875 -13.597656 10.28125 -14.6875 9.90625 -15.3125 C 9.53125 -15.945312 8.941406 -16.265625 8.140625 -16.265625 C 7.597656 -16.265625 7.164062 -16.085938 6.84375 -15.734375 C 6.53125 -15.378906 6.328125 -14.769531 6.234375 -13.90625 L 6.15625 -13.515625 C 6.113281 -12.535156 5.875 -11.816406 5.4375 -11.359375 C 5.007812 -10.910156 4.472656 -10.6875 3.828125 -10.6875 C 3.234375 -10.6875 2.742188 -10.867188 2.359375 -11.234375 C 1.972656 -11.597656 1.78125 -12.085938 1.78125 -12.703125 C 1.78125 -13.640625 2.101562 -14.425781 2.75 -15.0625 C 3.40625 -15.695312 4.269531 -16.175781 5.34375 -16.5 C 6.414062 -16.820312 7.578125 -16.984375 8.828125 -16.984375 C 10.859375 -16.984375 12.425781 -16.484375 13.53125 -15.484375 C 14.644531 -14.492188 15.203125 -12.878906 15.203125 -10.640625 L 15.203125 -3.078125 C 15.203125 -2.054688 15.679688 -1.546875 16.640625 -1.546875 L 17.390625 -1.546875 L 17.703125 -1.265625 C 17.265625 -0.710938 16.789062 -0.289062 16.28125 0 C 15.769531 0.289062 15.046875 0.4375 14.109375 0.4375 C 13.097656 0.4375 12.300781 0.207031 11.71875 -0.25 C 11.144531 -0.71875 10.765625 -1.34375 10.578125 -2.125 C 9.890625 -1.394531 9.1875 -0.769531 8.46875 -0.25 C 7.75 0.257812 6.820312 0.515625 5.6875 0.515625 Z M 7.765625 -1.578125 C 8.222656 -1.578125 8.648438 -1.679688 9.046875 -1.890625 C 9.453125 -2.109375 9.925781 -2.445312 10.46875 -2.90625 L 10.46875 -8.65625 C 10.25 -8.613281 10.023438 -8.566406 9.796875 -8.515625 C 9.566406 -8.472656 9.300781 -8.429688 9 -8.390625 C 7.945312 -8.117188 7.109375 -7.65625 6.484375 -7 C 5.859375 -6.351562 5.546875 -5.476562 5.546875 -4.375 C 5.546875 -3.445312 5.757812 -2.75 6.1875 -2.28125 C 6.625 -1.8125 7.148438 -1.578125 7.765625 -1.578125 Z M 7.765625 -1.578125 "/></g></g></g><g fill="#ff00f2" fill-opacity="1"><g transform="translate(171.239163, 30.353192)"><g><path d="M 0.4375 0 L 0.4375 -0.34375 L 1.328125 -0.546875 C 1.859375 -0.660156 2.285156 -0.835938 2.609375 -1.078125 C 2.941406 -1.316406 3.257812 -1.65625 3.5625 -2.09375 L 7.25 -7.390625 L 2.609375 -14.796875 C 2.378906 -15.128906 2.171875 -15.382812 1.984375 -15.5625 C 1.804688 -15.75 1.519531 -15.890625 1.125 -15.984375 L 0.65625 -16.125 L 0.65625 -16.46875 L 9.34375 -16.46875 L 9.34375 -16.125 L 8.765625 -15.984375 C 7.960938 -15.734375 7.800781 -15.234375 8.28125 -14.484375 L 11.09375 -10.140625 L 14.140625 -14.34375 C 14.390625 -14.726562 14.507812 -15.050781 14.5 -15.3125 C 14.488281 -15.582031 14.265625 -15.773438 13.828125 -15.890625 L 12.96875 -16.125 L 12.96875 -16.46875 L 17.96875 -16.46875 L 17.96875 -16.125 L 17.15625 -15.921875 C 16.644531 -15.785156 16.253906 -15.609375 15.984375 -15.390625 C 15.710938 -15.171875 15.414062 -14.832031 15.09375 -14.375 L 11.5 -9.515625 L 16.1875 -2.21875 C 16.757812 -1.332031 17.523438 -0.765625 18.484375 -0.515625 L 19.03125 -0.34375 L 19.03125 0 L 9.578125 0 L 9.578125 -0.34375 L 10.171875 -0.484375 C 10.554688 -0.566406 10.800781 -0.75 10.90625 -1.03125 C 11.007812 -1.320312 10.945312 -1.648438 10.71875 -2.015625 L 7.703125 -6.703125 L 4.453125 -1.984375 C 4.179688 -1.617188 4.09375 -1.304688 4.1875 -1.046875 C 4.289062 -0.785156 4.523438 -0.609375 4.890625 -0.515625 L 5.578125 -0.34375 L 5.578125 0 Z M 0.4375 0 "/></g></g></g><g fill="#ff00f2" fill-opacity="1"><g transform="translate(66.207546, 46.790764)"><g><path d="M 19.109375 -17.25 C 19.109375 -18.53125 18.429688 -19.171875 17.078125 -19.171875 C 15.921875 -19.171875 14.410156 -18.625 12.546875 -17.53125 C 10.679688 -16.4375 8.769531 -14.765625 6.8125 -12.515625 C 4.851562 -10.265625 3.484375 -7.90625 2.703125 -5.4375 C 2.378906 -4.457031 2.21875 -3.550781 2.21875 -2.71875 C 2.21875 -1.882812 2.457031 -1.160156 2.9375 -0.546875 C 3.78125 0.546875 5.164062 1.101562 7.09375 1.125 C 7.226562 1.125 7.351562 1.125 7.46875 1.125 C 9.582031 1.125 11.875 0.582031 14.34375 -0.5 C 16.8125 -1.582031 18.785156 -3.171875 20.265625 -5.265625 C 20.378906 -5.429688 20.5 -5.46875 20.625 -5.375 C 20.75 -5.28125 20.8125 -5.195312 20.8125 -5.125 C 20.8125 -5.0625 20.789062 -5.007812 20.75 -4.96875 C 19.0625 -2.65625 16.984375 -0.921875 14.515625 0.234375 C 12.046875 1.398438 9.660156 1.984375 7.359375 1.984375 C 4.941406 1.984375 3.117188 1.300781 1.890625 -0.0625 C 1.085938 -0.957031 0.6875 -2.125 0.6875 -3.5625 C 0.6875 -5.976562 1.597656 -8.578125 3.421875 -11.359375 C 5.910156 -15.148438 8.925781 -17.773438 12.46875 -19.234375 C 13.832031 -19.785156 15.140625 -20.0625 16.390625 -20.0625 C 17.941406 -20.0625 19.050781 -19.695312 19.71875 -18.96875 C 20.15625 -18.46875 20.375 -17.882812 20.375 -17.21875 C 20.375 -15.96875 19.707031 -14.675781 18.375 -13.34375 C 17.050781 -12.019531 15.585938 -10.960938 13.984375 -10.171875 C 12.378906 -9.390625 10.984375 -8.941406 9.796875 -8.828125 C 9.316406 -8.785156 9.085938 -8.910156 9.109375 -9.203125 C 9.128906 -9.617188 9.414062 -9.847656 9.96875 -9.890625 C 11.789062 -10.054688 13.460938 -10.609375 14.984375 -11.546875 C 16.515625 -12.492188 17.691406 -13.757812 18.515625 -15.34375 C 18.910156 -15.957031 19.109375 -16.59375 19.109375 -17.25 Z M 19.109375 -17.25 "/></g></g></g><g fill="#ff00f2" fill-opacity="1"><g transform="translate(89.961952, 46.790764)"><g><path d="M 3.078125 0.375 C 2.710938 0.375 2.316406 0.265625 1.890625 0.046875 C 1.472656 -0.171875 1.113281 -0.476562 0.8125 -0.875 C 0.519531 -1.269531 0.375 -1.695312 0.375 -2.15625 C 0.375 -2.613281 0.476562 -3.046875 0.6875 -3.453125 C 1.144531 -4.410156 1.878906 -5.335938 2.890625 -6.234375 C 3.910156 -7.140625 4.96875 -7.910156 6.0625 -8.546875 C 7.15625 -9.191406 8.019531 -9.59375 8.65625 -9.75 C 9.300781 -9.914062 9.925781 -10 10.53125 -10 C 11.132812 -10 11.648438 -9.84375 12.078125 -9.53125 C 12.515625 -9.226562 12.734375 -8.90625 12.734375 -8.5625 C 12.734375 -8.445312 12.722656 -8.375 12.703125 -8.34375 C 12.679688 -8.320312 12.625 -8.335938 12.53125 -8.390625 C 12.257812 -8.816406 11.691406 -9.03125 10.828125 -9.03125 C 9.972656 -9.03125 9.003906 -8.75 7.921875 -8.1875 C 6.835938 -7.632812 5.816406 -6.9375 4.859375 -6.09375 C 4.054688 -5.34375 3.351562 -4.492188 2.75 -3.546875 C 2.144531 -2.597656 1.84375 -1.90625 1.84375 -1.46875 C 1.84375 -0.625 2.082031 -0.203125 2.5625 -0.203125 C 3.039062 -0.203125 3.773438 -0.59375 4.765625 -1.375 C 6.378906 -2.738281 7.484375 -3.738281 8.078125 -4.375 C 10.179688 -6.632812 11.3125 -7.765625 11.46875 -7.765625 C 11.738281 -7.765625 12.066406 -7.6875 12.453125 -7.53125 C 12.847656 -7.375 12.976562 -7.179688 12.84375 -6.953125 C 11.675781 -5.304688 10.988281 -3.648438 10.78125 -1.984375 C 10.757812 -1.773438 10.75 -1.507812 10.75 -1.1875 C 10.75 -0.875 10.84375 -0.613281 11.03125 -0.40625 C 11.363281 -0.0390625 11.828125 -0.0195312 12.421875 -0.34375 C 13.015625 -0.664062 13.84375 -1.304688 14.90625 -2.265625 C 15.96875 -3.222656 16.816406 -4.15625 17.453125 -5.0625 C 17.546875 -5.175781 17.648438 -5.203125 17.765625 -5.140625 C 17.878906 -5.085938 17.9375 -5.039062 17.9375 -5 C 17.9375 -4.65625 17.394531 -3.90625 16.3125 -2.75 C 15.226562 -1.601562 14.398438 -0.820312 13.828125 -0.40625 C 12.753906 0.382812 11.765625 0.78125 10.859375 0.78125 C 9.984375 0.78125 9.398438 0.347656 9.109375 -0.515625 C 9.035156 -0.785156 9 -1.09375 9 -1.4375 C 9 -2.46875 9.21875 -3.550781 9.65625 -4.6875 C 9.5625 -4.644531 9.132812 -4.1875 8.375 -3.3125 C 7.625 -2.445312 6.753906 -1.613281 5.765625 -0.8125 C 4.773438 -0.0195312 3.878906 0.375 3.078125 0.375 Z M 3.078125 0.375 "/></g></g></g><g fill="#ff00f2" fill-opacity="1"><g transform="translate(111.046763, 46.790764)"><g><path d="M 12.109375 -7.125 C 12.109375 -6.113281 11.695312 -5.085938 10.875 -4.046875 C 10.0625 -3.015625 9.09375 -2.109375 7.96875 -1.328125 C 6.945312 -0.671875 5.90625 -0.160156 4.84375 0.203125 C 3.78125 0.566406 2.976562 0.75 2.4375 0.75 C 1.90625 0.75 1.46875 0.691406 1.125 0.578125 C 0.625 1.742188 -0.0703125 3.695312 -0.96875 6.4375 C -1.050781 6.726562 -1.097656 7.097656 -1.109375 7.546875 C -1.117188 7.992188 -1.253906 8.597656 -1.515625 9.359375 C -1.785156 10.128906 -2.046875 10.738281 -2.296875 11.1875 C -2.410156 11.46875 -2.738281 11.691406 -3.28125 11.859375 C -3.832031 12.035156 -4.222656 12.125 -4.453125 12.125 C -4.679688 12.125 -4.796875 12.007812 -4.796875 11.78125 C -4.796875 11.6875 -4.757812 11.5625 -4.6875 11.40625 C -3.644531 9.257812 -2.320312 6.101562 -0.71875 1.9375 C 0.875 -2.226562 1.75 -4.539062 1.90625 -5 C 2.070312 -5.457031 2.300781 -6.117188 2.59375 -6.984375 C 3.101562 -8.441406 3.378906 -9.535156 3.421875 -10.265625 C 3.421875 -10.546875 3.785156 -10.6875 4.515625 -10.6875 C 5.242188 -10.6875 5.609375 -10.421875 5.609375 -9.890625 C 5.609375 -9.503906 5.382812 -8.960938 4.9375 -8.265625 C 4.5 -7.566406 3.84375 -6.179688 2.96875 -4.109375 C 4.300781 -6.117188 5.375 -7.429688 6.1875 -8.046875 C 7.289062 -8.929688 8.351562 -9.375 9.375 -9.375 C 9.789062 -9.375 10.203125 -9.304688 10.609375 -9.171875 C 11.492188 -8.859375 11.984375 -8.347656 12.078125 -7.640625 C 12.097656 -7.453125 12.109375 -7.28125 12.109375 -7.125 Z M 10.4375 -7.59375 C 10.4375 -8.394531 10.128906 -8.796875 9.515625 -8.796875 C 9.148438 -8.796875 8.554688 -8.578125 7.734375 -8.140625 C 6.910156 -7.710938 6.085938 -7.0625 5.265625 -6.1875 C 4.441406 -5.320312 3.804688 -4.507812 3.359375 -3.75 C 2.921875 -2.988281 2.503906 -2.203125 2.109375 -1.390625 C 1.722656 -0.578125 1.5 -0.101562 1.4375 0.03125 C 2.820312 0.03125 4.347656 -0.570312 6.015625 -1.78125 C 7.679688 -2.988281 8.925781 -4.300781 9.75 -5.71875 C 10.207031 -6.425781 10.4375 -7.050781 10.4375 -7.59375 Z M 10.4375 -7.59375 "/></g></g></g><g fill="#ff00f2" fill-opacity="1"><g transform="translate(129.15395, 46.790764)"><g><path d="M 1.71875 0.34375 C 1.414062 0.6875 1.347656 0.957031 1.515625 1.15625 C 1.691406 1.363281 1.890625 1.46875 2.109375 1.46875 C 2.328125 1.46875 2.546875 1.4375 2.765625 1.375 C 3.753906 1.070312 4.707031 0.484375 5.625 -0.390625 C 6.550781 -1.273438 7.015625 -2.171875 7.015625 -3.078125 C 7.015625 -3.578125 6.457031 -4.125 5.34375 -4.71875 C 4.8125 -5 4.515625 -5.160156 4.453125 -5.203125 C 3.835938 -5.609375 3.445312 -6.019531 3.28125 -6.4375 C 2.96875 -5.882812 2.457031 -5.097656 1.75 -4.078125 C 1.582031 -3.890625 1.429688 -3.847656 1.296875 -3.953125 C 1.160156 -4.054688 1.148438 -4.195312 1.265625 -4.375 C 2.203125 -5.65625 2.816406 -6.726562 3.109375 -7.59375 C 3.273438 -8.851562 4.191406 -9.984375 5.859375 -10.984375 C 7.523438 -11.992188 9.039062 -12.5 10.40625 -12.5 C 11.269531 -12.5 11.878906 -12.34375 12.234375 -12.03125 C 12.585938 -11.726562 12.765625 -11.425781 12.765625 -11.125 C 12.765625 -10.832031 12.675781 -10.488281 12.5 -10.09375 C 12.332031 -9.707031 11.988281 -9.34375 11.46875 -9 C 11.332031 -8.90625 11.21875 -8.929688 11.125 -9.078125 C 11.082031 -9.210938 11.179688 -9.398438 11.421875 -9.640625 C 11.660156 -9.878906 11.8125 -10.203125 11.875 -10.609375 C 11.945312 -11.023438 11.765625 -11.273438 11.328125 -11.359375 C 11.265625 -11.359375 11.195312 -11.359375 11.125 -11.359375 C 10.238281 -11.359375 9.125 -11.023438 7.78125 -10.359375 C 6.445312 -9.703125 5.40625 -8.851562 4.65625 -7.8125 C 4.351562 -7.414062 4.203125 -7.019531 4.203125 -6.625 C 4.203125 -6.226562 4.476562 -5.867188 5.03125 -5.546875 C 5.257812 -5.410156 5.644531 -5.191406 6.1875 -4.890625 C 6.738281 -4.597656 7.128906 -4.382812 7.359375 -4.25 C 7.585938 -4.113281 7.859375 -3.894531 8.171875 -3.59375 C 8.492188 -3.300781 8.671875 -3.023438 8.703125 -2.765625 C 8.804688 -2.085938 8.484375 -1.335938 7.734375 -0.515625 C 6.660156 0.671875 5.0625 1.503906 2.9375 1.984375 C 2.457031 2.097656 1.972656 2.15625 1.484375 2.15625 C 0.992188 2.15625 0.660156 1.972656 0.484375 1.609375 C 0.410156 1.515625 0.375 1.367188 0.375 1.171875 C 0.375 0.984375 0.554688 0.671875 0.921875 0.234375 C 1.265625 -0.109375 1.8125 -0.4375 2.5625 -0.75 C 2.632812 -0.769531 2.691406 -0.757812 2.734375 -0.71875 C 2.785156 -0.675781 2.796875 -0.617188 2.765625 -0.546875 C 2.742188 -0.472656 2.625 -0.390625 2.40625 -0.296875 C 2.195312 -0.210938 1.96875 0 1.71875 0.34375 Z M 1.71875 0.34375 "/></g></g></g><g fill="#ff00f2" fill-opacity="1"><g transform="translate(63.340913, 61.637603)"><g><path d="M 2.546875 -6.9375 L 4.25 -1.8125 L 4.3125 -1.8125 L 6.09375 -7.3125 L 5.328125 -7.375 L 5.328125 -8.453125 L 8.25 -8.453125 L 8.25 -7.421875 L 7.828125 -7.375 C 7.710938 -7.375 7.628906 -7.34375 7.578125 -7.28125 C 7.523438 -7.226562 7.476562 -7.132812 7.4375 -7 L 5.03125 0 L 3.375 0 L 0.78125 -7.328125 L 0.0625 -7.375 L 0.0625 -8.453125 L 3.34375 -8.453125 L 3.34375 -7.421875 L 2.921875 -7.375 C 2.660156 -7.363281 2.53125 -7.265625 2.53125 -7.078125 C 2.53125 -7.035156 2.535156 -6.988281 2.546875 -6.9375 Z M 2.546875 -6.9375 "/></g></g></g><g fill="#ff00f2" fill-opacity="1"><g transform="translate(73.661215, 61.637603)"><g><path d="M 1.1875 -1.484375 L 1.1875 -7.328125 L 0.46875 -7.375 L 0.46875 -8.453125 L 3.546875 -8.453125 L 3.546875 -7.421875 L 3.125 -7.375 C 2.875 -7.351562 2.75 -7.21875 2.75 -6.96875 L 2.75 -1.125 L 3.484375 -1.078125 L 3.484375 0 L 0.40625 0 L 0.40625 -1.03125 L 0.828125 -1.0625 C 0.953125 -1.082031 1.039062 -1.117188 1.09375 -1.171875 C 1.15625 -1.222656 1.1875 -1.328125 1.1875 -1.484375 Z M 1.1875 -1.484375 "/></g></g></g><g fill="#ff00f2" fill-opacity="1"><g transform="translate(79.577147, 61.637603)"><g><path d="M 2.765625 -1.421875 L 2.765625 -7.1875 L 1.78125 -7.1875 C 1.582031 -7.1875 1.484375 -7.054688 1.484375 -6.796875 L 1.484375 -6.203125 L 0.1875 -6.28125 L 0.1875 -8.453125 L 6.828125 -8.453125 L 6.828125 -6.28125 L 5.53125 -6.203125 L 5.53125 -6.796875 C 5.53125 -6.941406 5.507812 -7.039062 5.46875 -7.09375 C 5.425781 -7.15625 5.328125 -7.1875 5.171875 -7.1875 L 4.3125 -7.1875 L 4.3125 -1.125 L 5.3125 -1.078125 L 5.3125 0 L 1.734375 0 L 1.734375 -1.03125 L 2.40625 -1.0625 C 2.644531 -1.09375 2.765625 -1.210938 2.765625 -1.421875 Z M 2.765625 -1.421875 "/></g></g></g><g fill="#ff00f2" fill-opacity="1"><g transform="translate(88.615481, 61.637603)"><g><path d="M 0.859375 -1.421875 L 2.90625 -7.34375 L 2.109375 -7.421875 L 2.109375 -8.453125 L 5.015625 -8.453125 L 7.609375 -1.125 L 7.625 -1.125 L 8.34375 -1.078125 L 8.34375 0 L 5.0625 0 L 5.0625 -1.03125 L 5.546875 -1.0625 C 5.691406 -1.082031 5.789062 -1.117188 5.84375 -1.171875 C 5.894531 -1.222656 5.898438 -1.316406 5.859375 -1.453125 L 5.59375 -2.234375 L 2.609375 -2.234375 L 2.234375 -1.125 L 3 -1.078125 L 3 0 L 0.0625 0 L 0.0625 -1.03125 L 0.484375 -1.0625 C 0.660156 -1.082031 0.785156 -1.203125 0.859375 -1.421875 Z M 4.109375 -7.03125 L 2.921875 -3.40625 L 5.28125 -3.40625 L 4.140625 -7.03125 Z M 4.109375 -7.03125 "/></g></g></g><g fill="#ff00f2" fill-opacity="1"><g transform="translate(99.037325, 61.637603)"><g><path d="M 3.15625 -8.453125 L 5.3125 -2.703125 L 5.328125 -2.703125 L 7.5 -8.453125 L 10.015625 -8.453125 L 10.015625 -7.421875 L 9.609375 -7.375 C 9.347656 -7.351562 9.222656 -7.207031 9.234375 -6.9375 L 9.546875 -1.125 L 10.34375 -1.078125 L 10.34375 0 L 7.28125 0 L 7.28125 -1.03125 L 7.734375 -1.0625 C 7.960938 -1.082031 8.070312 -1.191406 8.0625 -1.390625 L 7.828125 -5.875 L 7.796875 -5.875 L 5.84375 -0.8125 L 4.640625 -0.8125 L 2.703125 -5.828125 L 2.6875 -5.828125 L 2.421875 -1.125 L 3.25 -1.078125 L 3.25 0 L 0.25 0 L 0.25 -1.03125 L 0.71875 -1.0625 C 0.90625 -1.082031 1.007812 -1.195312 1.03125 -1.40625 L 1.375 -7.3125 L 0.59375 -7.375 L 0.59375 -8.453125 Z M 3.15625 -8.453125 "/></g></g></g><g fill="#ff00f2" fill-opacity="1"><g transform="translate(111.642317, 61.637603)"><g><path d="M 1.1875 -1.484375 L 1.1875 -7.328125 L 0.46875 -7.375 L 0.46875 -8.453125 L 3.546875 -8.453125 L 3.546875 -7.421875 L 3.125 -7.375 C 2.875 -7.351562 2.75 -7.21875 2.75 -6.96875 L 2.75 -1.125 L 3.484375 -1.078125 L 3.484375 0 L 0.40625 0 L 0.40625 -1.03125 L 0.828125 -1.0625 C 0.953125 -1.082031 1.039062 -1.117188 1.09375 -1.171875 C 1.15625 -1.222656 1.1875 -1.328125 1.1875 -1.484375 Z M 1.1875 -1.484375 "/></g></g></g><g fill="#ff00f2" fill-opacity="1"><g transform="translate(117.558251, 61.637603)"><g><path d="M 0.40625 0 L 0.40625 -1.03125 L 0.859375 -1.0625 C 1.078125 -1.082031 1.1875 -1.203125 1.1875 -1.421875 L 1.1875 -7.328125 L 0.46875 -7.375 L 0.46875 -8.453125 L 2.75 -8.453125 L 6.359375 -2.609375 L 6.375 -2.609375 L 6.375 -7.328125 L 5.53125 -7.375 L 5.53125 -8.453125 L 8.640625 -8.453125 L 8.640625 -7.421875 L 8.1875 -7.375 C 7.976562 -7.363281 7.875 -7.234375 7.875 -6.984375 L 7.875 0 L 6.390625 0 L 2.71875 -5.921875 L 2.6875 -5.921875 L 2.6875 -1.125 L 3.515625 -1.078125 L 3.515625 0 Z M 0.40625 0 "/></g></g></g><g fill="#ff00f2" fill-opacity="1"><g transform="translate(128.525883, 61.637603)"><g><path d="M 0.859375 -1.421875 L 2.90625 -7.34375 L 2.109375 -7.421875 L 2.109375 -8.453125 L 5.015625 -8.453125 L 7.609375 -1.125 L 7.625 -1.125 L 8.34375 -1.078125 L 8.34375 0 L 5.0625 0 L 5.0625 -1.03125 L 5.546875 -1.0625 C 5.691406 -1.082031 5.789062 -1.117188 5.84375 -1.171875 C 5.894531 -1.222656 5.898438 -1.316406 5.859375 -1.453125 L 5.59375 -2.234375 L 2.609375 -2.234375 L 2.234375 -1.125 L 3 -1.078125 L 3 0 L 0.0625 0 L 0.0625 -1.03125 L 0.484375 -1.0625 C 0.660156 -1.082031 0.785156 -1.203125 0.859375 -1.421875 Z M 4.109375 -7.03125 L 2.921875 -3.40625 L 5.28125 -3.40625 L 4.140625 -7.03125 Z M 4.109375 -7.03125 "/></g></g></g><g fill="#ff00f2" fill-opacity="1"><g transform="translate(138.947728, 61.637603)"><g><path d="M 3.0625 -1.140625 C 4.070312 -1.140625 4.578125 -1.546875 4.578125 -2.359375 C 4.578125 -2.785156 4.351562 -3.097656 3.90625 -3.296875 C 3.675781 -3.421875 3.367188 -3.53125 2.984375 -3.625 C 2.609375 -3.726562 2.296875 -3.832031 2.046875 -3.9375 C 1.796875 -4.050781 1.546875 -4.195312 1.296875 -4.375 C 0.796875 -4.75 0.546875 -5.320312 0.546875 -6.09375 C 0.546875 -6.875 0.8125 -7.484375 1.34375 -7.921875 C 1.882812 -8.367188 2.585938 -8.59375 3.453125 -8.59375 C 4.328125 -8.59375 5.132812 -8.421875 5.875 -8.078125 L 5.875 -6.171875 L 4.578125 -6.078125 L 4.578125 -6.828125 C 4.578125 -6.953125 4.5625 -7.039062 4.53125 -7.09375 C 4.4375 -7.257812 4.140625 -7.34375 3.640625 -7.34375 C 3.140625 -7.34375 2.765625 -7.253906 2.515625 -7.078125 C 2.273438 -6.898438 2.15625 -6.625 2.15625 -6.25 C 2.15625 -5.976562 2.257812 -5.738281 2.46875 -5.53125 C 2.601562 -5.394531 2.800781 -5.28125 3.0625 -5.1875 C 3.332031 -5.101562 3.617188 -5.015625 3.921875 -4.921875 C 4.222656 -4.835938 4.488281 -4.738281 4.71875 -4.625 C 4.945312 -4.507812 5.191406 -4.359375 5.453125 -4.171875 C 5.960938 -3.785156 6.21875 -3.191406 6.21875 -2.390625 C 6.21875 -1.597656 5.929688 -0.972656 5.359375 -0.515625 C 4.796875 -0.0546875 4.046875 0.171875 3.109375 0.171875 C 2.171875 0.171875 1.328125 -0.00390625 0.578125 -0.359375 L 0.578125 -2.359375 L 1.875 -2.453125 L 1.875 -1.671875 C 1.875 -1.546875 1.890625 -1.453125 1.921875 -1.390625 C 1.960938 -1.335938 2.066406 -1.28125 2.234375 -1.21875 C 2.410156 -1.164062 2.6875 -1.140625 3.0625 -1.140625 Z M 3.0625 -1.140625 "/></g></g></g></svg>