<svg xmlns="http://www.w3.org/2000/svg" xmlns:xlink="http://www.w3.org/1999/xlink" width="275" zoomAndPan="magnify" viewBox="0 0 206.25 67.499998" height="90" preserveAspectRatio="xMidYMid meet" version="1.0"><defs><g/></defs><g fill="#ffffff" fill-opacity="1"><g transform="translate(33.02682, 31.750292)"><g><path d="M 0.59375 0 L 0.59375 -0.265625 L 1.140625 -0.484375 C 1.503906 -0.609375 1.742188 -0.78125 1.859375 -1 C 1.972656 -1.21875 2.03125 -1.5 2.03125 -1.84375 L 2.03125 -16.046875 C 2.03125 -16.398438 1.972656 -16.6875 1.859375 -16.90625 C 1.742188 -17.125 1.503906 -17.296875 1.140625 -17.421875 L 0.59375 -17.640625 L 0.59375 -17.90625 L 7.484375 -17.90625 L 7.484375 -17.640625 L 7.03125 -17.453125 C 6.6875 -17.328125 6.453125 -17.160156 6.328125 -16.953125 C 6.203125 -16.742188 6.140625 -16.457031 6.140625 -16.09375 L 6.140625 -9.5 L 12.625 -9.5 L 12.625 -16.09375 C 12.625 -16.457031 12.5625 -16.742188 12.4375 -16.953125 C 12.320312 -17.160156 12.082031 -17.328125 11.71875 -17.453125 L 11.234375 -17.640625 L 11.234375 -17.90625 L 18.15625 -17.90625 L 18.15625 -17.640625 L 17.609375 -17.421875 C 17.265625 -17.296875 17.03125 -17.125 16.90625 -16.90625 C 16.78125 -16.6875 16.71875 -16.398438 16.71875 -16.046875 L 16.71875 -1.84375 C 16.71875 -1.5 16.78125 -1.21875 16.90625 -1 C 17.03125 -0.78125 17.265625 -0.609375 17.609375 -0.484375 L 18.15625 -0.265625 L 18.15625 0 L 11.234375 0 L 11.234375 -0.265625 L 11.71875 -0.4375 C 12.082031 -0.582031 12.320312 -0.757812 12.4375 -0.96875 C 12.5625 -1.175781 12.625 -1.457031 12.625 -1.8125 L 12.625 -8.953125 L 6.140625 -8.953125 L 6.140625 -1.8125 C 6.140625 -1.144531 6.4375 -0.6875 7.03125 -0.4375 L 7.484375 -0.265625 L 7.484375 0 Z M 0.59375 0 "/></g></g></g><g fill="#ffffff" fill-opacity="1"><g transform="translate(56.095236, 31.750292)"><g><path d="M 4.5 0.40625 C 3.457031 0.40625 2.578125 0.109375 1.859375 -0.484375 C 1.140625 -1.085938 0.78125 -1.945312 0.78125 -3.0625 C 0.78125 -3.914062 1.210938 -4.695312 2.078125 -5.40625 C 2.953125 -6.125 4.320312 -6.664062 6.1875 -7.03125 C 6.476562 -7.082031 6.800781 -7.140625 7.15625 -7.203125 C 7.519531 -7.265625 7.90625 -7.332031 8.3125 -7.40625 L 8.3125 -9.546875 C 8.3125 -10.785156 8.160156 -11.648438 7.859375 -12.140625 C 7.554688 -12.640625 7.085938 -12.890625 6.453125 -12.890625 C 6.023438 -12.890625 5.679688 -12.75 5.421875 -12.46875 C 5.171875 -12.1875 5.007812 -11.703125 4.9375 -11.015625 L 4.890625 -10.71875 C 4.847656 -9.9375 4.65625 -9.363281 4.3125 -9 C 3.96875 -8.644531 3.546875 -8.46875 3.046875 -8.46875 C 2.566406 -8.46875 2.171875 -8.613281 1.859375 -8.90625 C 1.554688 -9.195312 1.40625 -9.582031 1.40625 -10.0625 C 1.40625 -10.8125 1.660156 -11.4375 2.171875 -11.9375 C 2.691406 -12.445312 3.378906 -12.828125 4.234375 -13.078125 C 5.085938 -13.335938 6.007812 -13.46875 7 -13.46875 C 8.613281 -13.46875 9.859375 -13.070312 10.734375 -12.28125 C 11.609375 -11.488281 12.046875 -10.207031 12.046875 -8.4375 L 12.046875 -2.4375 C 12.046875 -1.625 12.425781 -1.21875 13.1875 -1.21875 L 13.78125 -1.21875 L 14.03125 -1 C 13.6875 -0.570312 13.3125 -0.238281 12.90625 0 C 12.5 0.238281 11.925781 0.359375 11.1875 0.359375 C 10.382812 0.359375 9.753906 0.171875 9.296875 -0.203125 C 8.835938 -0.578125 8.535156 -1.070312 8.390625 -1.6875 C 7.847656 -1.101562 7.289062 -0.609375 6.71875 -0.203125 C 6.144531 0.203125 5.40625 0.40625 4.5 0.40625 Z M 6.15625 -1.25 C 6.519531 -1.25 6.859375 -1.332031 7.171875 -1.5 C 7.492188 -1.675781 7.875 -1.945312 8.3125 -2.3125 L 8.3125 -6.859375 C 8.125 -6.828125 7.9375 -6.789062 7.75 -6.75 C 7.570312 -6.71875 7.367188 -6.6875 7.140625 -6.65625 C 6.304688 -6.4375 5.640625 -6.066406 5.140625 -5.546875 C 4.640625 -5.035156 4.390625 -4.34375 4.390625 -3.46875 C 4.390625 -2.726562 4.5625 -2.171875 4.90625 -1.796875 C 5.25 -1.429688 5.664062 -1.25 6.15625 -1.25 Z M 6.15625 -1.25 "/></g></g></g><g fill="#ffffff" fill-opacity="1"><g transform="translate(74.468852, 31.750292)"><g><path d="M 3.796875 -14.875 C 3.179688 -14.875 2.660156 -15.066406 2.234375 -15.453125 C 1.804688 -15.847656 1.59375 -16.34375 1.59375 -16.9375 C 1.59375 -17.550781 1.804688 -18.046875 2.234375 -18.421875 C 2.660156 -18.804688 3.179688 -19 3.796875 -19 C 4.410156 -19 4.925781 -18.804688 5.34375 -18.421875 C 5.757812 -18.046875 5.96875 -17.550781 5.96875 -16.9375 C 5.96875 -16.34375 5.757812 -15.847656 5.34375 -15.453125 C 4.925781 -15.066406 4.410156 -14.875 3.796875 -14.875 Z M 0.59375 0 L 0.59375 -0.265625 L 0.984375 -0.375 C 1.335938 -0.488281 1.582031 -0.648438 1.71875 -0.859375 C 1.851562 -1.078125 1.921875 -1.367188 1.921875 -1.734375 L 1.921875 -10.234375 C 1.921875 -10.609375 1.851562 -10.890625 1.71875 -11.078125 C 1.582031 -11.273438 1.335938 -11.410156 0.984375 -11.484375 L 0.59375 -11.5625 L 0.59375 -11.828125 L 5.5625 -13.4375 L 5.828125 -13.15625 L 5.75 -9.3125 L 5.75 -1.703125 C 5.75 -1.347656 5.816406 -1.0625 5.953125 -0.84375 C 6.085938 -0.625 6.328125 -0.460938 6.671875 -0.359375 L 6.953125 -0.265625 L 6.953125 0 Z M 0.59375 0 "/></g></g></g><g fill="#ffffff" fill-opacity="1"><g transform="translate(86.38372, 31.750292)"><g><path d="M 0.546875 0 L 0.546875 -0.265625 L 0.953125 -0.375 C 1.316406 -0.488281 1.566406 -0.648438 1.703125 -0.859375 C 1.835938 -1.078125 1.90625 -1.359375 1.90625 -1.703125 L 1.90625 -10.203125 C 1.90625 -10.597656 1.835938 -10.890625 1.703125 -11.078125 C 1.566406 -11.273438 1.316406 -11.410156 0.953125 -11.484375 L 0.546875 -11.59375 L 0.546875 -11.859375 L 5.21875 -13.4375 L 5.484375 -13.15625 L 5.734375 -10.828125 L 5.734375 -10.609375 C 5.984375 -11.117188 6.3125 -11.582031 6.71875 -12 C 7.125 -12.425781 7.578125 -12.773438 8.078125 -13.046875 C 8.578125 -13.328125 9.066406 -13.46875 9.546875 -13.46875 C 10.234375 -13.46875 10.757812 -13.273438 11.125 -12.890625 C 11.488281 -12.515625 11.671875 -12.035156 11.671875 -11.453125 C 11.671875 -10.835938 11.492188 -10.363281 11.140625 -10.03125 C 10.785156 -9.695312 10.363281 -9.53125 9.875 -9.53125 C 9.113281 -9.53125 8.445312 -9.910156 7.875 -10.671875 L 7.8125 -10.71875 C 7.632812 -10.96875 7.425781 -11.109375 7.1875 -11.140625 C 6.957031 -11.171875 6.742188 -11.054688 6.546875 -10.796875 C 6.359375 -10.640625 6.207031 -10.445312 6.09375 -10.21875 C 5.976562 -9.988281 5.863281 -9.726562 5.75 -9.4375 L 5.75 -1.875 C 5.75 -1.144531 6.066406 -0.691406 6.703125 -0.515625 L 7.578125 -0.265625 L 7.578125 0 Z M 0.546875 0 "/></g></g></g><g fill="#ffffff" fill-opacity="1"><g transform="translate(102.667741, 31.750292)"><g/></g></g><g fill="#ffffff" fill-opacity="1"><g transform="translate(112.900079, 31.750292)"><g><path d="M 0.546875 0 L 0.546875 -0.265625 L 1.078125 -0.46875 C 1.703125 -0.664062 2.015625 -1.179688 2.015625 -2.015625 L 2.015625 -15.90625 C 2.015625 -16.269531 1.972656 -16.554688 1.890625 -16.765625 C 1.804688 -16.984375 1.59375 -17.164062 1.25 -17.3125 L 0.546875 -17.640625 L 0.546875 -17.90625 L 5.78125 -17.90625 L 10.796875 -4.78125 L 15.53125 -17.90625 L 20.875 -17.90625 L 20.875 -17.640625 L 20.4375 -17.484375 C 20.09375 -17.347656 19.859375 -17.164062 19.734375 -16.9375 C 19.609375 -16.71875 19.546875 -16.425781 19.546875 -16.0625 L 19.546875 -1.875 C 19.546875 -1.507812 19.585938 -1.226562 19.671875 -1.03125 C 19.765625 -0.832031 19.984375 -0.660156 20.328125 -0.515625 L 20.875 -0.265625 L 20.875 0 L 14.109375 0 L 14.109375 -0.265625 L 14.6875 -0.515625 C 15.03125 -0.660156 15.242188 -0.832031 15.328125 -1.03125 C 15.421875 -1.226562 15.46875 -1.507812 15.46875 -1.875 L 15.46875 -7.984375 L 15.53125 -15.734375 L 9.859375 0 L 8.5 0 L 2.578125 -15.546875 L 2.65625 -8.796875 L 2.65625 -1.953125 C 2.65625 -1.554688 2.710938 -1.234375 2.828125 -0.984375 C 2.953125 -0.742188 3.1875 -0.570312 3.53125 -0.46875 L 4.125 -0.265625 L 4.125 0 Z M 0.546875 0 "/></g></g></g><g fill="#ffffff" fill-opacity="1"><g transform="translate(138.682257, 31.750292)"><g><path d="M 4.5 0.40625 C 3.457031 0.40625 2.578125 0.109375 1.859375 -0.484375 C 1.140625 -1.085938 0.78125 -1.945312 0.78125 -3.0625 C 0.78125 -3.914062 1.210938 -4.695312 2.078125 -5.40625 C 2.953125 -6.125 4.320312 -6.664062 6.1875 -7.03125 C 6.476562 -7.082031 6.800781 -7.140625 7.15625 -7.203125 C 7.519531 -7.265625 7.90625 -7.332031 8.3125 -7.40625 L 8.3125 -9.546875 C 8.3125 -10.785156 8.160156 -11.648438 7.859375 -12.140625 C 7.554688 -12.640625 7.085938 -12.890625 6.453125 -12.890625 C 6.023438 -12.890625 5.679688 -12.75 5.421875 -12.46875 C 5.171875 -12.1875 5.007812 -11.703125 4.9375 -11.015625 L 4.890625 -10.71875 C 4.847656 -9.9375 4.65625 -9.363281 4.3125 -9 C 3.96875 -8.644531 3.546875 -8.46875 3.046875 -8.46875 C 2.566406 -8.46875 2.171875 -8.613281 1.859375 -8.90625 C 1.554688 -9.195312 1.40625 -9.582031 1.40625 -10.0625 C 1.40625 -10.8125 1.660156 -11.4375 2.171875 -11.9375 C 2.691406 -12.445312 3.378906 -12.828125 4.234375 -13.078125 C 5.085938 -13.335938 6.007812 -13.46875 7 -13.46875 C 8.613281 -13.46875 9.859375 -13.070312 10.734375 -12.28125 C 11.609375 -11.488281 12.046875 -10.207031 12.046875 -8.4375 L 12.046875 -2.4375 C 12.046875 -1.625 12.425781 -1.21875 13.1875 -1.21875 L 13.78125 -1.21875 L 14.03125 -1 C 13.6875 -0.570312 13.3125 -0.238281 12.90625 0 C 12.5 0.238281 11.925781 0.359375 11.1875 0.359375 C 10.382812 0.359375 9.753906 0.171875 9.296875 -0.203125 C 8.835938 -0.578125 8.535156 -1.070312 8.390625 -1.6875 C 7.847656 -1.101562 7.289062 -0.609375 6.71875 -0.203125 C 6.144531 0.203125 5.40625 0.40625 4.5 0.40625 Z M 6.15625 -1.25 C 6.519531 -1.25 6.859375 -1.332031 7.171875 -1.5 C 7.492188 -1.675781 7.875 -1.945312 8.3125 -2.3125 L 8.3125 -6.859375 C 8.125 -6.828125 7.9375 -6.789062 7.75 -6.75 C 7.570312 -6.71875 7.367188 -6.6875 7.140625 -6.65625 C 6.304688 -6.4375 5.640625 -6.066406 5.140625 -5.546875 C 4.640625 -5.035156 4.390625 -4.34375 4.390625 -3.46875 C 4.390625 -2.726562 4.5625 -2.171875 4.90625 -1.796875 C 5.25 -1.429688 5.664062 -1.25 6.15625 -1.25 Z M 6.15625 -1.25 "/></g></g></g><g fill="#ffffff" fill-opacity="1"><g transform="translate(157.05587, 31.750292)"><g><path d="M 0.359375 0 L 0.359375 -0.265625 L 1.0625 -0.4375 C 1.476562 -0.519531 1.816406 -0.65625 2.078125 -0.84375 C 2.335938 -1.039062 2.585938 -1.3125 2.828125 -1.65625 L 5.75 -5.859375 L 2.0625 -11.71875 C 1.882812 -11.988281 1.722656 -12.195312 1.578125 -12.34375 C 1.429688 -12.488281 1.203125 -12.597656 0.890625 -12.671875 L 0.515625 -12.78125 L 0.515625 -13.046875 L 7.40625 -13.046875 L 7.40625 -12.78125 L 6.953125 -12.671875 C 6.316406 -12.472656 6.1875 -12.078125 6.5625 -11.484375 L 8.796875 -8.03125 L 11.203125 -11.375 C 11.398438 -11.675781 11.492188 -11.929688 11.484375 -12.140625 C 11.484375 -12.347656 11.3125 -12.5 10.96875 -12.59375 L 10.28125 -12.78125 L 10.28125 -13.046875 L 14.25 -13.046875 L 14.25 -12.78125 L 13.59375 -12.625 C 13.195312 -12.507812 12.890625 -12.363281 12.671875 -12.1875 C 12.453125 -12.019531 12.21875 -11.757812 11.96875 -11.40625 L 9.125 -7.546875 L 12.84375 -1.765625 C 13.289062 -1.054688 13.894531 -0.601562 14.65625 -0.40625 L 15.09375 -0.265625 L 15.09375 0 L 7.59375 0 L 7.59375 -0.265625 L 8.0625 -0.375 C 8.363281 -0.445312 8.554688 -0.597656 8.640625 -0.828125 C 8.722656 -1.054688 8.675781 -1.3125 8.5 -1.59375 L 6.109375 -5.3125 L 3.53125 -1.578125 C 3.3125 -1.285156 3.242188 -1.035156 3.328125 -0.828125 C 3.410156 -0.617188 3.59375 -0.476562 3.875 -0.40625 L 4.421875 -0.265625 L 4.421875 0 Z M 0.359375 0 "/></g></g></g><g fill="#ffffff" fill-opacity="1"><g transform="translate(73.77593, 44.783701)"><g><path d="M 15.140625 -13.671875 C 15.140625 -14.691406 14.609375 -15.203125 13.546875 -15.203125 C 12.617188 -15.203125 11.414062 -14.765625 9.9375 -13.890625 C 8.46875 -13.023438 6.953125 -11.703125 5.390625 -9.921875 C 3.835938 -8.140625 2.753906 -6.269531 2.140625 -4.3125 C 1.890625 -3.53125 1.765625 -2.8125 1.765625 -2.15625 C 1.765625 -1.5 1.953125 -0.925781 2.328125 -0.4375 C 3.003906 0.4375 4.101562 0.878906 5.625 0.890625 C 5.726562 0.890625 5.828125 0.890625 5.921875 0.890625 C 7.597656 0.890625 9.410156 0.460938 11.359375 -0.390625 C 13.316406 -1.253906 14.882812 -2.515625 16.0625 -4.171875 C 16.15625 -4.304688 16.25 -4.335938 16.34375 -4.265625 C 16.445312 -4.191406 16.5 -4.125 16.5 -4.0625 C 16.5 -4.007812 16.484375 -3.96875 16.453125 -3.9375 C 15.109375 -2.101562 13.457031 -0.726562 11.5 0.1875 C 9.550781 1.113281 7.660156 1.578125 5.828125 1.578125 C 3.910156 1.578125 2.46875 1.035156 1.5 -0.046875 C 0.863281 -0.753906 0.546875 -1.679688 0.546875 -2.828125 C 0.546875 -4.742188 1.269531 -6.804688 2.71875 -9.015625 C 4.6875 -12.015625 7.070312 -14.09375 9.875 -15.25 C 10.957031 -15.6875 12 -15.90625 13 -15.90625 C 14.226562 -15.90625 15.109375 -15.613281 15.640625 -15.03125 C 15.984375 -14.632812 16.15625 -14.175781 16.15625 -13.65625 C 16.15625 -12.65625 15.628906 -11.628906 14.578125 -10.578125 C 13.523438 -9.535156 12.359375 -8.703125 11.078125 -8.078125 C 9.804688 -7.453125 8.703125 -7.09375 7.765625 -7 C 7.378906 -6.96875 7.195312 -7.066406 7.21875 -7.296875 C 7.238281 -7.628906 7.460938 -7.8125 7.890625 -7.84375 C 9.335938 -7.96875 10.664062 -8.40625 11.875 -9.15625 C 13.09375 -9.90625 14.03125 -10.90625 14.6875 -12.15625 C 14.988281 -12.644531 15.140625 -13.148438 15.140625 -13.671875 Z M 15.140625 -13.671875 "/></g></g></g><g fill="#ffffff" fill-opacity="1"><g transform="translate(92.610883, 44.783701)"><g><path d="M 2.4375 0.296875 C 2.15625 0.296875 1.84375 0.207031 1.5 0.03125 C 1.164062 -0.132812 0.878906 -0.375 0.640625 -0.6875 C 0.410156 -1.007812 0.296875 -1.347656 0.296875 -1.703125 C 0.296875 -2.066406 0.378906 -2.410156 0.546875 -2.734375 C 0.898438 -3.492188 1.476562 -4.234375 2.28125 -4.953125 C 3.09375 -5.671875 3.929688 -6.28125 4.796875 -6.78125 C 5.671875 -7.289062 6.359375 -7.609375 6.859375 -7.734375 C 7.367188 -7.859375 7.863281 -7.921875 8.34375 -7.921875 C 8.820312 -7.921875 9.234375 -7.796875 9.578125 -7.546875 C 9.921875 -7.304688 10.09375 -7.050781 10.09375 -6.78125 C 10.09375 -6.695312 10.082031 -6.644531 10.0625 -6.625 C 10.050781 -6.601562 10.007812 -6.613281 9.9375 -6.65625 C 9.71875 -7 9.269531 -7.171875 8.59375 -7.171875 C 7.914062 -7.171875 7.144531 -6.945312 6.28125 -6.5 C 5.425781 -6.050781 4.617188 -5.492188 3.859375 -4.828125 C 3.222656 -4.234375 2.664062 -3.5625 2.1875 -2.8125 C 1.707031 -2.0625 1.46875 -1.515625 1.46875 -1.171875 C 1.46875 -0.492188 1.65625 -0.15625 2.03125 -0.15625 C 2.414062 -0.15625 2.992188 -0.460938 3.765625 -1.078125 C 5.054688 -2.171875 5.9375 -2.96875 6.40625 -3.46875 C 8.070312 -5.257812 8.96875 -6.15625 9.09375 -6.15625 C 9.3125 -6.15625 9.570312 -6.09375 9.875 -5.96875 C 10.1875 -5.84375 10.285156 -5.691406 10.171875 -5.515625 C 9.253906 -4.210938 8.710938 -2.898438 8.546875 -1.578125 C 8.523438 -1.410156 8.515625 -1.195312 8.515625 -0.9375 C 8.515625 -0.6875 8.585938 -0.484375 8.734375 -0.328125 C 9.003906 -0.0351562 9.375 -0.015625 9.84375 -0.265625 C 10.320312 -0.523438 10.976562 -1.035156 11.8125 -1.796875 C 12.65625 -2.554688 13.332031 -3.296875 13.84375 -4.015625 C 13.914062 -4.109375 13.992188 -4.128906 14.078125 -4.078125 C 14.171875 -4.035156 14.21875 -4 14.21875 -3.96875 C 14.21875 -3.695312 13.785156 -3.101562 12.921875 -2.1875 C 12.066406 -1.269531 11.414062 -0.648438 10.96875 -0.328125 C 10.113281 0.304688 9.328125 0.625 8.609375 0.625 C 7.921875 0.625 7.457031 0.28125 7.21875 -0.40625 C 7.164062 -0.625 7.140625 -0.867188 7.140625 -1.140625 C 7.140625 -1.953125 7.3125 -2.8125 7.65625 -3.71875 C 7.582031 -3.675781 7.242188 -3.3125 6.640625 -2.625 C 6.046875 -1.9375 5.351562 -1.273438 4.5625 -0.640625 C 3.78125 -0.015625 3.070312 0.296875 2.4375 0.296875 Z M 2.4375 0.296875 "/></g></g></g><g fill="#ffffff" fill-opacity="1"><g transform="translate(109.329104, 44.783701)"><g><path d="M 9.609375 -5.640625 C 9.609375 -4.847656 9.28125 -4.039062 8.625 -3.21875 C 7.976562 -2.394531 7.210938 -1.675781 6.328125 -1.0625 C 5.515625 -0.53125 4.6875 -0.125 3.84375 0.15625 C 3 0.445312 2.363281 0.59375 1.9375 0.59375 C 1.519531 0.59375 1.175781 0.550781 0.90625 0.46875 C 0.5 1.382812 -0.0507812 2.929688 -0.75 5.109375 C -0.820312 5.335938 -0.863281 5.628906 -0.875 5.984375 C -0.882812 6.335938 -0.992188 6.816406 -1.203125 7.421875 C -1.410156 8.023438 -1.613281 8.507812 -1.8125 8.875 C -1.90625 9.09375 -2.164062 9.269531 -2.59375 9.40625 C -3.03125 9.539062 -3.335938 9.609375 -3.515625 9.609375 C -3.703125 9.609375 -3.796875 9.519531 -3.796875 9.34375 C -3.796875 9.269531 -3.769531 9.164062 -3.71875 9.03125 C -2.882812 7.332031 -1.832031 4.832031 -0.5625 1.53125 C 0.695312 -1.769531 1.390625 -3.597656 1.515625 -3.953125 C 1.648438 -4.316406 1.832031 -4.84375 2.0625 -5.53125 C 2.457031 -6.695312 2.675781 -7.566406 2.71875 -8.140625 C 2.71875 -8.359375 3.003906 -8.46875 3.578125 -8.46875 C 4.160156 -8.46875 4.453125 -8.257812 4.453125 -7.84375 C 4.453125 -7.53125 4.273438 -7.097656 3.921875 -6.546875 C 3.566406 -6.003906 3.046875 -4.90625 2.359375 -3.25 C 3.410156 -4.84375 4.265625 -5.882812 4.921875 -6.375 C 5.785156 -7.082031 6.625 -7.4375 7.4375 -7.4375 C 7.757812 -7.4375 8.085938 -7.382812 8.421875 -7.28125 C 9.117188 -7.019531 9.503906 -6.609375 9.578125 -6.046875 C 9.597656 -5.898438 9.609375 -5.765625 9.609375 -5.640625 Z M 8.28125 -6.03125 C 8.28125 -6.65625 8.035156 -6.96875 7.546875 -6.96875 C 7.253906 -6.96875 6.78125 -6.796875 6.125 -6.453125 C 5.476562 -6.109375 4.828125 -5.59375 4.171875 -4.90625 C 3.523438 -4.21875 3.023438 -3.570312 2.671875 -2.96875 C 2.316406 -2.363281 1.984375 -1.738281 1.671875 -1.09375 C 1.367188 -0.457031 1.191406 -0.0820312 1.140625 0.03125 C 2.242188 0.03125 3.457031 -0.445312 4.78125 -1.40625 C 6.101562 -2.363281 7.085938 -3.40625 7.734375 -4.53125 C 8.097656 -5.09375 8.28125 -5.59375 8.28125 -6.03125 Z M 8.28125 -6.03125 "/></g></g></g><g fill="#ffffff" fill-opacity="1"><g transform="translate(123.686356, 44.783701)"><g><path d="M 1.359375 0.265625 C 1.117188 0.535156 1.066406 0.753906 1.203125 0.921875 C 1.335938 1.085938 1.488281 1.171875 1.65625 1.171875 C 1.832031 1.171875 2.015625 1.140625 2.203125 1.078125 C 2.972656 0.847656 3.722656 0.382812 4.453125 -0.3125 C 5.191406 -1.007812 5.5625 -1.71875 5.5625 -2.4375 C 5.5625 -2.84375 5.117188 -3.28125 4.234375 -3.75 C 3.816406 -3.96875 3.582031 -4.09375 3.53125 -4.125 C 3.039062 -4.445312 2.734375 -4.773438 2.609375 -5.109375 C 2.347656 -4.671875 1.941406 -4.046875 1.390625 -3.234375 C 1.253906 -3.085938 1.132812 -3.050781 1.03125 -3.125 C 0.925781 -3.207031 0.914062 -3.320312 1 -3.46875 C 1.738281 -4.488281 2.226562 -5.34375 2.46875 -6.03125 C 2.59375 -7.019531 3.316406 -7.910156 4.640625 -8.703125 C 5.960938 -9.503906 7.164062 -9.90625 8.25 -9.90625 C 8.9375 -9.90625 9.421875 -9.78125 9.703125 -9.53125 C 9.984375 -9.289062 10.125 -9.050781 10.125 -8.8125 C 10.125 -8.582031 10.054688 -8.3125 9.921875 -8 C 9.785156 -7.695312 9.507812 -7.410156 9.09375 -7.140625 C 8.976562 -7.066406 8.890625 -7.082031 8.828125 -7.1875 C 8.785156 -7.300781 8.859375 -7.453125 9.046875 -7.640625 C 9.242188 -7.828125 9.367188 -8.082031 9.421875 -8.40625 C 9.472656 -8.738281 9.328125 -8.941406 8.984375 -9.015625 C 8.929688 -9.015625 8.878906 -9.015625 8.828125 -9.015625 C 8.117188 -9.015625 7.234375 -8.75 6.171875 -8.21875 C 5.117188 -7.695312 4.289062 -7.019531 3.6875 -6.1875 C 3.457031 -5.882812 3.34375 -5.570312 3.34375 -5.25 C 3.34375 -4.9375 3.554688 -4.648438 3.984375 -4.390625 C 4.171875 -4.285156 4.476562 -4.113281 4.90625 -3.875 C 5.34375 -3.644531 5.648438 -3.472656 5.828125 -3.359375 C 6.015625 -3.253906 6.234375 -3.082031 6.484375 -2.84375 C 6.734375 -2.613281 6.867188 -2.398438 6.890625 -2.203125 C 6.984375 -1.660156 6.734375 -1.0625 6.140625 -0.40625 C 5.285156 0.53125 4.015625 1.191406 2.328125 1.578125 C 1.953125 1.660156 1.566406 1.703125 1.171875 1.703125 C 0.785156 1.703125 0.519531 1.5625 0.375 1.28125 C 0.320312 1.207031 0.296875 1.09375 0.296875 0.9375 C 0.296875 0.78125 0.441406 0.53125 0.734375 0.1875 C 1.003906 -0.0820312 1.4375 -0.34375 2.03125 -0.59375 C 2.082031 -0.613281 2.125 -0.601562 2.15625 -0.5625 C 2.195312 -0.53125 2.207031 -0.488281 2.1875 -0.4375 C 2.175781 -0.382812 2.082031 -0.320312 1.90625 -0.25 C 1.738281 -0.175781 1.554688 -0.00390625 1.359375 0.265625 Z M 1.359375 0.265625 "/></g></g></g><g fill="#ffffff" fill-opacity="1"><g transform="translate(71.502967, 56.555812)"><g><path d="M 2.015625 -5.5 L 3.375 -1.4375 L 3.421875 -1.4375 L 4.828125 -5.796875 L 4.21875 -5.84375 L 4.21875 -6.6875 L 6.53125 -6.6875 L 6.53125 -5.875 L 6.203125 -5.84375 C 6.109375 -5.84375 6.039062 -5.816406 6 -5.765625 C 5.96875 -5.722656 5.929688 -5.648438 5.890625 -5.546875 L 3.984375 0 L 2.671875 0 L 0.625 -5.8125 L 0.046875 -5.84375 L 0.046875 -6.6875 L 2.640625 -6.6875 L 2.640625 -5.875 L 2.3125 -5.84375 C 2.101562 -5.832031 2 -5.753906 2 -5.609375 C 2 -5.566406 2.003906 -5.53125 2.015625 -5.5 Z M 2.015625 -5.5 "/></g></g></g><g fill="#ffffff" fill-opacity="1"><g transform="translate(79.685971, 56.555812)"><g><path d="M 0.953125 -1.171875 L 0.953125 -5.8125 L 0.375 -5.84375 L 0.375 -6.6875 L 2.8125 -6.6875 L 2.8125 -5.875 L 2.46875 -5.84375 C 2.28125 -5.820312 2.1875 -5.71875 2.1875 -5.53125 L 2.1875 -0.890625 L 2.75 -0.859375 L 2.75 0 L 0.328125 0 L 0.328125 -0.8125 L 0.65625 -0.84375 C 0.757812 -0.851562 0.832031 -0.878906 0.875 -0.921875 C 0.925781 -0.972656 0.953125 -1.054688 0.953125 -1.171875 Z M 0.953125 -1.171875 "/></g></g></g><g fill="#ffffff" fill-opacity="1"><g transform="translate(84.376734, 56.555812)"><g><path d="M 2.1875 -1.125 L 2.1875 -5.703125 L 1.40625 -5.703125 C 1.25 -5.703125 1.171875 -5.597656 1.171875 -5.390625 L 1.171875 -4.90625 L 0.15625 -4.984375 L 0.15625 -6.6875 L 5.40625 -6.6875 L 5.40625 -4.984375 L 4.390625 -4.90625 L 4.390625 -5.390625 C 4.390625 -5.492188 4.367188 -5.570312 4.328125 -5.625 C 4.296875 -5.675781 4.21875 -5.703125 4.09375 -5.703125 L 3.40625 -5.703125 L 3.40625 -0.890625 L 4.203125 -0.859375 L 4.203125 0 L 1.375 0 L 1.375 -0.8125 L 1.90625 -0.84375 C 2.09375 -0.863281 2.1875 -0.957031 2.1875 -1.125 Z M 2.1875 -1.125 "/></g></g></g><g fill="#ffffff" fill-opacity="1"><g transform="translate(91.543262, 56.555812)"><g><path d="M 0.6875 -1.125 L 2.296875 -5.8125 L 1.671875 -5.875 L 1.671875 -6.6875 L 3.96875 -6.6875 L 6.03125 -0.890625 L 6.609375 -0.859375 L 6.609375 0 L 4.015625 0 L 4.015625 -0.8125 L 4.390625 -0.84375 C 4.503906 -0.851562 4.582031 -0.878906 4.625 -0.921875 C 4.664062 -0.960938 4.671875 -1.035156 4.640625 -1.140625 L 4.421875 -1.765625 L 2.078125 -1.765625 L 1.765625 -0.890625 L 2.375 -0.859375 L 2.375 0 L 0.046875 0 L 0.046875 -0.8125 L 0.375 -0.84375 C 0.519531 -0.851562 0.625 -0.945312 0.6875 -1.125 Z M 3.25 -5.5625 L 2.3125 -2.703125 L 4.1875 -2.703125 L 3.28125 -5.5625 Z M 3.25 -5.5625 "/></g></g></g><g fill="#ffffff" fill-opacity="1"><g transform="translate(99.806778, 56.555812)"><g><path d="M 2.5 -6.6875 L 4.203125 -2.140625 L 4.21875 -2.140625 L 5.953125 -6.6875 L 7.9375 -6.6875 L 7.9375 -5.875 L 7.609375 -5.84375 C 7.410156 -5.820312 7.3125 -5.707031 7.3125 -5.5 L 7.5625 -0.890625 L 8.1875 -0.859375 L 8.1875 0 L 5.765625 0 L 5.765625 -0.8125 L 6.125 -0.84375 C 6.3125 -0.851562 6.398438 -0.941406 6.390625 -1.109375 L 6.203125 -4.65625 L 6.171875 -4.65625 L 4.625 -0.640625 L 3.671875 -0.640625 L 2.140625 -4.625 L 2.125 -4.625 L 1.921875 -0.890625 L 2.578125 -0.859375 L 2.578125 0 L 0.203125 0 L 0.203125 -0.8125 L 0.5625 -0.84375 C 0.71875 -0.851562 0.800781 -0.941406 0.8125 -1.109375 L 1.09375 -5.796875 L 0.46875 -5.84375 L 0.46875 -6.6875 Z M 2.5 -6.6875 "/></g></g></g><g fill="#ffffff" fill-opacity="1"><g transform="translate(109.801321, 56.555812)"><g><path d="M 0.953125 -1.171875 L 0.953125 -5.8125 L 0.375 -5.84375 L 0.375 -6.6875 L 2.8125 -6.6875 L 2.8125 -5.875 L 2.46875 -5.84375 C 2.28125 -5.820312 2.1875 -5.71875 2.1875 -5.53125 L 2.1875 -0.890625 L 2.75 -0.859375 L 2.75 0 L 0.328125 0 L 0.328125 -0.8125 L 0.65625 -0.84375 C 0.757812 -0.851562 0.832031 -0.878906 0.875 -0.921875 C 0.925781 -0.972656 0.953125 -1.054688 0.953125 -1.171875 Z M 0.953125 -1.171875 "/></g></g></g><g fill="#ffffff" fill-opacity="1"><g transform="translate(114.492086, 56.555812)"><g><path d="M 0.328125 0 L 0.328125 -0.8125 L 0.6875 -0.84375 C 0.863281 -0.851562 0.953125 -0.945312 0.953125 -1.125 L 0.953125 -5.8125 L 0.375 -5.84375 L 0.375 -6.6875 L 2.1875 -6.6875 L 5.03125 -2.078125 L 5.046875 -2.078125 L 5.046875 -5.8125 L 4.390625 -5.84375 L 4.390625 -6.6875 L 6.84375 -6.6875 L 6.84375 -5.875 L 6.484375 -5.84375 C 6.316406 -5.832031 6.234375 -5.726562 6.234375 -5.53125 L 6.234375 0 L 5.0625 0 L 2.15625 -4.6875 L 2.140625 -4.6875 L 2.140625 -0.890625 L 2.78125 -0.859375 L 2.78125 0 Z M 0.328125 0 "/></g></g></g><g fill="#ffffff" fill-opacity="1"><g transform="translate(123.18836, 56.555812)"><g><path d="M 0.6875 -1.125 L 2.296875 -5.8125 L 1.671875 -5.875 L 1.671875 -6.6875 L 3.96875 -6.6875 L 6.03125 -0.890625 L 6.609375 -0.859375 L 6.609375 0 L 4.015625 0 L 4.015625 -0.8125 L 4.390625 -0.84375 C 4.503906 -0.851562 4.582031 -0.878906 4.625 -0.921875 C 4.664062 -0.960938 4.671875 -1.035156 4.640625 -1.140625 L 4.421875 -1.765625 L 2.078125 -1.765625 L 1.765625 -0.890625 L 2.375 -0.859375 L 2.375 0 L 0.046875 0 L 0.046875 -0.8125 L 0.375 -0.84375 C 0.519531 -0.851562 0.625 -0.945312 0.6875 -1.125 Z M 3.25 -5.5625 L 2.3125 -2.703125 L 4.1875 -2.703125 L 3.28125 -5.5625 Z M 3.25 -5.5625 "/></g></g></g><g fill="#ffffff" fill-opacity="1"><g transform="translate(131.451877, 56.555812)"><g><path d="M 2.421875 -0.90625 C 3.222656 -0.90625 3.625 -1.226562 3.625 -1.875 C 3.625 -2.207031 3.445312 -2.453125 3.09375 -2.609375 C 2.90625 -2.703125 2.660156 -2.789062 2.359375 -2.875 C 2.066406 -2.957031 1.820312 -3.039062 1.625 -3.125 C 1.425781 -3.207031 1.226562 -3.320312 1.03125 -3.46875 C 0.632812 -3.769531 0.4375 -4.222656 0.4375 -4.828125 C 0.4375 -5.441406 0.644531 -5.925781 1.0625 -6.28125 C 1.488281 -6.632812 2.046875 -6.8125 2.734375 -6.8125 C 3.421875 -6.8125 4.0625 -6.675781 4.65625 -6.40625 L 4.65625 -4.890625 L 3.625 -4.8125 L 3.625 -5.40625 C 3.625 -5.5 3.613281 -5.570312 3.59375 -5.625 C 3.519531 -5.75 3.28125 -5.8125 2.875 -5.8125 C 2.476562 -5.8125 2.179688 -5.738281 1.984375 -5.59375 C 1.796875 -5.457031 1.703125 -5.242188 1.703125 -4.953125 C 1.703125 -4.734375 1.785156 -4.546875 1.953125 -4.390625 C 2.054688 -4.273438 2.210938 -4.179688 2.421875 -4.109375 C 2.640625 -4.046875 2.867188 -3.976562 3.109375 -3.90625 C 3.347656 -3.832031 3.554688 -3.75 3.734375 -3.65625 C 3.921875 -3.570312 4.113281 -3.453125 4.3125 -3.296875 C 4.726562 -2.992188 4.9375 -2.523438 4.9375 -1.890625 C 4.9375 -1.265625 4.707031 -0.769531 4.25 -0.40625 C 3.800781 -0.0507812 3.203125 0.125 2.453125 0.125 C 1.710938 0.125 1.050781 -0.0078125 0.46875 -0.28125 L 0.46875 -1.875 L 1.484375 -1.9375 L 1.484375 -1.328125 C 1.484375 -1.222656 1.492188 -1.144531 1.515625 -1.09375 C 1.546875 -1.050781 1.628906 -1.007812 1.765625 -0.96875 C 1.910156 -0.925781 2.128906 -0.90625 2.421875 -0.90625 Z M 2.421875 -0.90625 "/></g></g></g></svg>